<?xml version="1.0" encoding="UTF-8" standalone="no"?><!DOCTYPE svg PUBLIC "-//W3C//DTD SVG 1.1//EN" "http://www.w3.org/Graphics/SVG/1.1/DTD/svg11.dtd"><svg width="100%" height="100%" viewBox="0 0 20 20" version="1.1" xmlns="http://www.w3.org/2000/svg" xmlns:xlink="http://www.w3.org/1999/xlink" xml:space="preserve" xmlns:serif="http://www.serif.com/" style="fill-rule:evenodd;clip-rule:evenodd;stroke-linecap:round;stroke-linejoin:round;stroke-miterlimit:1.5;"><path d="M10,2.885c3.927,0 7.115,3.188 7.115,7.115c0,3.927 -3.188,7.115 -7.115,7.115c-3.927,0 -7.115,-3.188 -7.115,-7.115c0,-3.927 3.188,-7.115 7.115,-7.115Zm0.004,0.178c3.822,0 6.926,3.114 6.926,6.949c0,3.835 -3.104,6.948 -6.926,6.948c-3.823,0 -6.927,-3.113 -6.927,-6.948c0,-3.835 3.104,-6.949 6.927,-6.949Z" style="fill:#808080;"/><ellipse cx="7.338" cy="7.702" rx="0.243" ry="0.232" style="fill:#808080;"/><circle cx="12.925" cy="7.713" r="0.221" style="fill:#808080;"/><path d="M6.394,12.49c0,0 0.518,2.302 3.692,2.297c3.175,-0.005 3.752,-2.349 3.752,-2.349" style="fill:none;stroke:#808080;stroke-width:0.35px;"/></svg>